<?xml version="1.0" encoding="iso-8859-1"?>
<!-- Uploaded to: SVG Repo, www.svgrepo.com, Generator: SVG Repo Mixer Tools -->
<!DOCTYPE svg PUBLIC "-//W3C//DTD SVG 1.1//EN" "http://www.w3.org/Graphics/SVG/1.1/DTD/svg11.dtd">
<svg fill="#000000" version="1.1" id="Capa_1" xmlns="http://www.w3.org/2000/svg" xmlns:xlink="http://www.w3.org/1999/xlink" 
	 width="800px" height="800px" viewBox="0 0 43.226 43.226"
	 xml:space="preserve">
<g>
	<g>
		<path d="M37.119,28.389c0-8.208,0-16.417,0-24.624c0-5.556-12.92-3.32-16.004-3.32c-3.796,0-11.869-1.572-14.403,2.354
			c-0.429,0.663-0.566,1.33-0.575,1.363C6.13,4.187,6.12,4.202,6.12,4.222c0,6.907,0,13.817,0,20.727
			c0,2.296-1.792,17.566,1.371,18.212c0.472,0.098,0.975,0.081,1.498-0.021c0.774-0.152,1.328-0.399,1.288-0.361
			c-0.041,0.037-0.037,0.045,0.008,0.017c0.024-0.016,0.052-0.029,0.078-0.051c0,0,0.026-0.02,0.057-0.043
			c0.032-0.024,0.648-0.3,1.33-0.699c3.325-1.95,6.837-5.704,8.679-7.102c3.335-2.534,10.157,10.289,14.973,7.901
			C39.006,41.012,37.119,31.631,37.119,28.389z M32.341,38.072c-0.556,0.561-1.275,0.811-1.607,0.557
			c-0.331-0.253-0.149-0.91,0.405-1.473c0.278-0.281,0.557-0.561,0.834-0.842c0.557-0.562,0.956-1.042,0.892-1.071
			c-0.065-0.029-0.561,0.412-1.104,0.985c-0.258,0.271-0.515,0.542-0.771,0.811c-0.543,0.572-1.112,0.939-1.271,0.818
			c-0.097-0.072-0.191-0.146-0.286-0.218c-0.187-0.144-0.372-0.283-0.558-0.426c-0.307-0.233-0.184-0.818,0.271-1.307
			c0.456-0.487,0.556-0.81,0.248-0.66c-0.188,0.092-0.365,0.199-0.529,0.323c0,0-0.241,0.184-0.537,0.409
			c-0.298,0.227-1.046,0.02-1.699-0.424c-2.529-1.725-5.066-2.683-8.339-0.69c-2.322,1.412-4.44,3.364-6.604,5.006
			c-2.647,2.012-2.805,2.818-2.805-0.311c0-0.388,0-0.773,0-1.16c0-0.641,0.449-1.615,1.004-2.178
			c1.479-1.5,2.963-3.004,4.455-4.516c0.556-0.562,0.533-0.583-0.047-0.05c-0.385,0.353-0.773,0.71-1.173,1.076
			c-1.064,0.986-2.127,1.969-3.189,2.953c-0.579,0.536-1.05,0.37-1.05-0.373c0-0.742,0.473-1.777,1.056-2.312
			c2.015-1.845,4.029-3.688,6.036-5.539c0.58-0.534,1.051-1.526,1.051-2.218c0-0.688-0.469-0.812-1.048-0.273
			c-2.017,1.872-4.033,3.744-6.049,5.617c-0.578,0.538-1.046,0.385-1.046-0.343s0.468-1.754,1.044-2.292
			c1.998-1.863,4.022-3.753,6.055-5.649c0.576-0.539,1.044-1.116,1.044-1.289s-0.453,0.142-1.012,0.698
			c-1.746,1.747-3.775,3.781-6.123,6.136c-0.557,0.56-1.008,0.371-1.008-0.419c0-0.634,0-1.265,0-1.897
			c0-0.79,0.445-1.89,0.994-2.457c2.066-2.133,4.119-4.248,6.151-6.341c0.551-0.565,0.997-1.39,0.997-1.839
			c0-0.451-0.18-0.644-0.403-0.431c-0.131,0.126-0.264,0.252-0.403,0.386c-2.167,2.158-4.27,4.25-6.322,6.293
			c-0.56,0.558-1.014,0.367-1.014-0.422c0-0.94,0-1.878,0-2.816c0-0.79,0.455-1.881,1.017-2.435c2.036-2.011,4.07-4.02,6.108-6.026
			c0.562-0.555,1.017-1.604,1.017-2.348c0-0.742-0.445-0.888-0.995-0.319c-2.056,2.115-4.102,4.232-6.153,6.348
			c-0.549,0.566-0.994,0.548-0.994-0.045c0-0.591,0.453-1.521,1.008-2.085c0.789-0.8,2.07-2.104,3.973-4.042
			c0.814-0.838,1.599-1.645,2.365-2.433c0.55-0.565,1.017-1.072,1.042-1.129c0.026-0.059-0.398,0.354-0.945,0.923
			c-2.484,2.561-5.072,5.228-6.454,6.657C9.32,11.54,8.881,11.92,8.881,11.816s0.448-0.646,0.999-1.211
			c3.111-3.181,5.81-5.928,7.886-8.019c0.556-0.56,0.428-1.013-0.287-1.013c-0.715,0-1.749,0.448-2.314,1.002
			c-1.738,1.707-3.496,3.436-5.264,5.173c-0.562,0.556-1.02,0.364-1.02-0.426c0-0.516,0-1.032,0-1.547
			c0-0.791,0.451-1.887,1.008-2.446c0.246-0.246,0.491-0.493,0.737-0.739c0.556-0.561,0.854-1.017,0.662-1.017h-0.345
			c-0.105,0-0.21,0.007-0.312,0.02c-0.172,0.021-0.573,0.317-0.896,0.646C9.412,2.566,9.4,2.181,10.073,1.77
			c1.258-0.77,3.174-0.236,5.225-0.236c4.017,0,8.034,0,12.052,0c2.18,0,7.008-0.868,7.008,2.966c0,2.308,0,4.613,0,6.92
			c0,7.59,0,15.18,0,22.769c0,0.348,0,0.697,0,1.046c0,0.578-0.031,1.021-0.07,0.994c-0.037-0.029-0.518,0.401-1.076,0.964
			C32.921,37.488,32.63,37.78,32.341,38.072z M34.353,41.38c-0.056-0.043-0.118-0.094-0.196-0.151
			c-0.185-0.141-0.367-0.279-0.552-0.419c-0.304-0.23-0.261-0.72,0.101-1.092c0.36-0.371,0.653-0.209,0.653,0.359
			c0,0.345,0,0.69,0,1.034c0,0.081,0.022,0.158,0.056,0.229C34.469,41.459,34.459,41.468,34.353,41.38z"/>
		<path d="M30.369,1.578c-0.242,0-0.46,0.021-0.487,0.048c-0.026,0.025,0.148,0.046,0.394,0.046c0.244,0,0.464-0.02,0.488-0.047
			C30.788,1.6,30.612,1.578,30.369,1.578z"/>
		<path d="M22.525,1.578c-0.791,0-1.451,0.021-1.477,0.047c-0.024,0.026,0.596,0.047,1.386,0.047h0.026
			c0.79,0,1.451-0.02,1.478-0.047c0.025-0.024-0.594-0.047-1.383-0.047H22.525z"/>
		<path d="M35.924,42.904c0.212-0.234,0.104-0.323-0.105-0.107C35.607,43.015,35.71,43.14,35.924,42.904z"/>
		<path d="M18.671,1.95c0.063-0.037,0.186-0.13,0.269-0.215c0.084-0.087,0.126-0.157,0.094-0.157c-0.032,0-0.15,0.099-0.268,0.218
			C18.65,1.915,18.607,1.984,18.671,1.95z"/>
	</g>
</g>
</svg>